<svg width="8" height="10" viewBox="0 0 8 10" fill="none" xmlns="http://www.w3.org/2000/svg">
<path d="M0 8.5V7.5H1V4C1 3.30833 1.20833 2.69375 1.625 2.15625C2.04167 1.61875 2.58333 1.26667 3.25 1.1V0.75C3.25 0.541667 3.32292 0.364583 3.46875 0.21875C3.61458 0.0729167 3.79167 0 4 0C4.20833 0 4.38542 0.0729167 4.53125 0.21875C4.67708 0.364583 4.75 0.541667 4.75 0.75V1.1C5.41667 1.26667 5.95833 1.61875 6.375 2.15625C6.79167 2.69375 7 3.30833 7 4V7.5H8V8.5H0ZM4 10C3.725 10 3.48958 9.90208 3.29375 9.70625C3.09792 9.51042 3 9.275 3 9H5C5 9.275 4.90208 9.51042 4.70625 9.70625C4.51042 9.90208 4.275 10 4 10ZM2 7.5H6V4C6 3.45 5.80417 2.97917 5.4125 2.5875C5.02083 2.19583 4.55 2 4 2C3.45 2 2.97917 2.19583 2.5875 2.5875C2.19583 2.97917 2 3.45 2 4V7.5Z" fill="#BEC7D2"/>
</svg>
